<svg width="102" height="102" viewBox="0 0 102 102" fill="none" xmlns="http://www.w3.org/2000/svg">
<path d="M51 1C23.3886 1 1 23.3886 1 51C1 59.3253 3.03642 67.1835 6.64207 74.0834C7.15716 75.0776 7.70819 76.0479 8.28318 76.9942C17.0637 91.3929 32.9118 101 51 101C69.0882 101 84.9363 91.3929 93.7168 76.9942C94.2918 76.0479 94.8428 75.0776 95.346 74.0954C98.9636 67.1955 101 59.3373 101 51C101 23.3886 78.6114 1 51 1ZM11.1461 75.2573C10.9305 74.8979 10.7149 74.5386 10.5232 74.1792C13.4102 71.2683 17.4111 69.4715 21.8313 69.4835C25.3172 69.4954 28.7192 70.6454 31.4863 72.7657C27.2698 77.3536 24.838 83.2712 24.5745 89.4763C19.2439 85.8227 14.656 81.0192 11.1461 75.2573ZM13.6617 58.3071C13.6737 53.8031 17.3273 50.1735 21.8194 50.1854C26.3234 50.1974 29.953 53.851 29.9411 58.3431C29.9291 62.8352 26.2875 66.4648 21.7954 66.4648C17.3033 66.4648 13.6497 62.8112 13.6617 58.3071ZM51 97.6459C42.495 97.6459 34.4092 95.3939 27.3896 91.2731C27.4974 91.0695 27.5573 90.8419 27.5573 90.6023C27.7968 77.6531 38.4701 67.3512 51.4193 67.5788C64.0331 67.8064 74.2032 77.9765 74.4308 90.6023C74.4308 90.8419 74.4907 91.0695 74.5985 91.2731C67.5908 95.3939 59.4931 97.6459 51 97.6459ZM51 64.1529C44.208 64.1409 38.7096 58.6426 38.6977 51.8505V51.8146C38.7096 45.0225 44.2319 39.5362 51.024 39.5482C57.828 39.5601 63.3143 45.0824 63.3023 51.8745C63.2784 58.6665 57.7801 64.1529 51 64.1529ZM90.8539 75.2453C87.3321 81.0192 82.7441 85.8227 77.4135 89.4883C77.162 83.2712 74.7183 77.3536 70.5017 72.7657C76.9344 67.8304 85.9425 68.5611 91.4887 74.1792C91.2851 74.5266 91.0695 74.886 90.8539 75.2453ZM72.047 58.3071C72.047 53.8031 75.7005 50.1615 80.1926 50.1615C84.6967 50.1615 88.3383 53.8031 88.3383 58.3071C88.3383 62.7992 84.6967 66.4408 80.1926 66.4408C75.7005 66.4408 72.0589 62.7992 72.047 58.3071ZM92.9382 71.448C91.1054 69.747 88.9252 68.4173 86.4696 67.5429C91.5606 64.081 92.8783 57.1572 89.4164 52.0661C85.9665 46.9751 79.0307 45.6454 73.9396 49.1073C68.8486 52.5692 67.5309 59.505 70.9928 64.5841C71.7714 65.746 72.7777 66.7523 73.9396 67.5429C71.9152 68.2496 70.0225 69.3038 68.3455 70.6574C65.4705 68.1538 62.0925 66.2971 58.4389 65.219C65.8299 61.1102 68.4892 51.7906 64.3805 44.3996C60.2837 37.0086 50.9641 34.3493 43.5731 38.4461C36.1821 42.5549 33.5108 51.8745 37.6195 59.2655C39.0091 61.769 41.0695 63.8294 43.5731 65.219C39.9075 66.2971 36.5295 68.1538 33.6545 70.6574C31.9895 69.3038 30.0968 68.2496 28.0604 67.5429C33.1634 64.081 34.4811 57.1452 31.0311 52.0541C27.5692 46.9631 20.6334 45.6334 15.5424 49.0954C10.4394 52.5453 9.10973 59.4811 12.5716 64.5841C13.3622 65.746 14.3685 66.7523 15.5424 67.5429C13.0867 68.4054 10.8946 69.735 9.06181 71.436C5.98323 65.1231 4.3541 58.0795 4.3541 51C4.3541 25.2813 25.2813 4.3541 51 4.3541C76.7187 4.3541 97.6459 25.2813 97.6459 51C97.6459 58.1035 96.0287 65.1231 92.9382 71.448Z" fill="black" stroke="black" stroke-width="2"/>
</svg>
