<svg version="1.2" xmlns="http://www.w3.org/2000/svg" viewBox="0 0 131 283" width="131" height="283">
	<title>New Project</title>
	<style>
		.s0 { fill: #08ef14 } 
		.s1 { fill: #3bc442 } 
		.s2 { fill: #1e8523 } 
	</style>
	<g id="Folder 1">
		<path id="Rounded Rectangle 2 copy 3" class="s0" d="m4.5 50.4l34.2-35.1c5.7-5.8 15.1-5.9 21-0.2l273.3 267.5c5.9 5.7 6 15.1 0.3 21l-34.3 35c-5.7 5.8-15.1 5.9-21 0.2l-273.3-267.5c-5.9-5.7-6-15.1-0.2-20.9z"/>
		<path id="Rounded Rectangle 2 copy 3" class="s1" d="m12.9 146.3l34.2-35c5.8-5.8 15.1-5.9 21-0.2l273.3 267.5c5.9 5.7 6 15.1 0.3 21l-34.3 35c-5.7 5.8-15.1 5.9-21 0.2l-273.3-267.5c-5.9-5.7-6-15.1-0.2-21z"/>
		<path id="Rounded Rectangle 2 copy 3" class="s2" d="m78.7 40l34.2-35c5.7-5.9 15.1-6 21-0.3l273.3 267.5c5.9 5.7 6 15.1 0.3 21l-34.3 35c-5.7 5.9-15.1 6-21 0.2l-273.3-267.4c-5.9-5.8-6-15.2-0.2-21z"/>
	</g>
</svg>